<svg width="120" height="120" viewBox="0 0 120 120" fill="none" xmlns="http://www.w3.org/2000/svg">
<path d="M54.5315 19.5115C55.1222 20.1028 55.6765 20.716 56.1946 21.3486C47.98 23.1906 40.1711 27.312 33.7807 33.7087C27.3516 40.1441 23.2237 48.016 21.4004 56.2921C20.7473 55.7596 20.1146 55.1884 19.5053 54.5786C9.83157 44.8953 9.83157 29.1948 19.5053 19.5115C29.1778 9.8295 44.8591 9.8295 54.5315 19.5115ZM24.8946 63.7166C35.6837 68.6276 48.839 66.6438 57.7151 57.759C66.6164 48.8489 68.5831 35.6324 63.6233 24.8172C75.1072 24.0824 86.8312 28.1075 95.6042 36.8891C111.799 53.0995 111.799 79.3827 95.6042 95.5931C79.4109 111.802 53.1575 111.802 36.9642 95.5931C28.2265 86.8468 24.2017 75.1693 24.8946 63.7166Z" stroke="#AAFF00" stroke-width="4.5"/>
</svg>
