<svg width="361" height="120" viewBox="0 0 361 120" fill="none" xmlns="http://www.w3.org/2000/svg">
<path d="M7.87 105.37V37.17H13.15V47.84C14.03 45.42 15.24 43.33 16.78 41.57C18.3933 39.81 20.3 38.4533 22.5 37.5C24.7733 36.5467 27.3033 36.07 30.09 36.07C32.73 36.07 35.26 36.5833 37.68 37.61C40.1733 38.6367 42.3733 40.2133 44.28 42.34C46.1867 44.3933 47.69 47.0333 48.79 50.26C49.89 53.4133 50.44 57.1533 50.44 61.48C50.44 66.0267 49.8533 70.0233 48.68 73.47C47.58 76.8433 46.04 79.63 44.06 81.83C42.1533 83.9567 39.9533 85.57 37.46 86.67C35.04 87.77 32.51 88.32 29.87 88.32C27.5233 88.32 25.25 87.88 23.05 87C20.9233 86.1933 19.0167 84.9833 17.33 83.37C15.6433 81.7567 14.2867 79.85 13.26 77.65V105.37H7.87ZM28.88 83.59C30.9333 83.59 32.9133 83.2233 34.82 82.49C36.7267 81.6833 38.45 80.4367 39.99 78.75C41.53 76.99 42.74 74.7167 43.62 71.93C44.5 69.1433 44.94 65.77 44.94 61.81C44.94 57.19 44.28 53.34 42.96 50.26C41.7133 47.18 39.9533 44.8333 37.68 43.22C35.4067 41.6067 32.7667 40.7633 29.76 40.69C27.4133 40.6167 25.2133 41.02 23.16 41.9C21.18 42.7067 19.42 44.0267 17.88 45.86C16.4133 47.6933 15.24 50.0767 14.36 53.01C13.5533 55.9433 13.15 59.4633 13.15 63.57C13.2233 66.5033 13.5533 69.1067 14.14 71.38C14.8 73.58 15.6433 75.4867 16.67 77.1C17.77 78.64 18.98 79.8867 20.3 80.84C21.6933 81.7933 23.1233 82.49 24.59 82.93C26.0567 83.37 27.4867 83.59 28.88 83.59ZM82.89 87.77C79.6633 87.77 77.06 87.22 75.08 86.12C73.1733 85.02 71.7433 83.3333 70.79 81.06C69.8367 78.7133 69.25 75.78 69.03 72.26C68.81 68.74 68.7733 64.56 68.92 59.72L70.24 23.53L75.74 22.87L76.73 22.76L76.84 23.53C76.4733 23.8967 76.18 24.3367 75.96 24.85C75.8133 25.3633 75.7033 26.2433 75.63 27.49L74.86 39.26L74.97 41.02L74.2 60.16C73.98 66.0267 74.09 70.6467 74.53 74.02C74.97 77.32 75.8867 79.6667 77.28 81.06C78.7467 82.38 80.8733 83.0767 83.66 83.15C86.08 83.15 88.3533 82.71 90.48 81.83C92.68 80.8767 94.8067 79.6667 96.86 78.2L98.84 82.38C96.3467 84.2133 93.78 85.57 91.14 86.45C88.5 87.33 85.75 87.77 82.89 87.77ZM57.7 37.28H93.89V41.79H57.7V37.28ZM127 87.88C122.453 87.88 118.53 86.78 115.23 84.58C111.93 82.38 109.363 79.3367 107.53 75.45C105.77 71.5633 104.89 67.09 104.89 62.03C104.89 56.8967 105.77 52.3867 107.53 48.5C109.363 44.6133 111.93 41.57 115.23 39.37C118.53 37.17 122.453 36.07 127 36.07C131.547 36.07 135.47 37.17 138.77 39.37C142.07 41.57 144.6 44.6133 146.36 48.5C148.193 52.3867 149.11 56.8967 149.11 62.03C149.11 67.09 148.193 71.5633 146.36 75.45C144.6 79.3367 142.07 82.38 138.77 84.58C135.47 86.78 131.547 87.88 127 87.88ZM127 83.26C130.52 83.26 133.49 82.3433 135.91 80.51C138.403 78.6767 140.31 76.1467 141.63 72.92C142.95 69.6933 143.61 66.0267 143.61 61.92C143.61 57.5933 142.877 53.8533 141.41 50.7C140.017 47.4733 138.073 44.98 135.58 43.22C133.16 41.46 130.3 40.58 127 40.58C123.627 40.58 120.693 41.4967 118.2 43.33C115.707 45.1633 113.8 47.6933 112.48 50.92C111.16 54.0733 110.5 57.74 110.5 61.92C110.5 66.1 111.16 69.8033 112.48 73.03C113.8 76.2567 115.707 78.7867 118.2 80.62C120.693 82.38 123.627 83.26 127 83.26ZM154.94 87V82.49H170.56V18.25H155.6V13.85H175.95V82.49H191.46V87H154.94ZM221.38 88.1C217.86 88.1 214.67 87.5133 211.81 86.34C208.95 85.1667 206.493 83.48 204.44 81.28C202.387 79.0067 200.773 76.2933 199.6 73.14C198.5 69.9133 197.95 66.2833 197.95 62.25C197.95 57.9967 198.5 54.2567 199.6 51.03C200.773 47.73 202.35 44.98 204.33 42.78C206.383 40.5067 208.73 38.82 211.37 37.72C214.01 36.5467 216.87 35.96 219.95 35.96C222.81 35.96 225.45 36.4367 227.87 37.39C230.363 38.3433 232.527 39.7733 234.36 41.68C236.193 43.5867 237.623 46.0067 238.65 48.94C239.677 51.8733 240.19 55.32 240.19 59.28C240.19 59.8667 240.19 60.38 240.19 60.82C240.19 61.1867 240.153 61.6633 240.08 62.25H203.12C203.193 65.8433 203.707 68.9967 204.66 71.71C205.613 74.35 206.897 76.55 208.51 78.31C210.123 80.07 212.03 81.39 214.23 82.27C216.43 83.15 218.85 83.59 221.49 83.59C223.617 83.59 225.523 83.3333 227.21 82.82C228.897 82.3067 230.437 81.5733 231.83 80.62C233.223 79.5933 234.507 78.42 235.68 77.1L238.98 80.07C237.587 81.7567 235.973 83.2233 234.14 84.47C232.38 85.6433 230.437 86.5233 228.31 87.11C226.183 87.77 223.873 88.1 221.38 88.1ZM203.34 57.85H234.8C234.8 55.0633 234.433 52.57 233.7 50.37C232.967 48.17 231.94 46.3367 230.62 44.87C229.3 43.33 227.723 42.1933 225.89 41.46C224.057 40.6533 222.04 40.25 219.84 40.25C217.493 40.25 215.367 40.6533 213.46 41.46C211.553 42.2667 209.867 43.44 208.4 44.98C207.007 46.52 205.87 48.39 204.99 50.59C204.183 52.7167 203.633 55.1367 203.34 57.85ZM253.06 87V37.17H258.12V42.78C258.927 41.46 259.88 40.2867 260.98 39.26C262.08 38.2333 263.253 37.4267 264.5 36.84C265.82 36.2533 267.213 35.96 268.68 35.96C270.073 35.96 271.393 36.29 272.64 36.95C273.887 37.5367 274.95 38.4533 275.83 39.7C276.783 40.8733 277.407 42.4133 277.7 44.32C278.507 42.6333 279.46 41.1667 280.56 39.92C281.733 38.6733 283.053 37.72 284.52 37.06C285.987 36.3267 287.563 35.96 289.25 35.96C290.79 35.96 292.147 36.2533 293.32 36.84C294.493 37.4267 295.483 38.3067 296.29 39.48C297.097 40.58 297.72 41.9367 298.16 43.55C298.6 45.09 298.783 46.8133 298.71 48.72V87H293.76V50.81C293.76 47.8767 293.467 45.64 292.88 44.1C292.367 42.56 291.67 41.4967 290.79 40.91C289.91 40.3233 288.957 40.03 287.93 40.03C286.317 40.03 284.777 40.69 283.31 42.01C281.843 43.33 280.67 44.98 279.79 46.96C278.91 48.8667 278.47 50.7733 278.47 52.68V87H273.41V51.58C273.41 47.0333 272.897 43.99 271.87 42.45C270.843 40.91 269.193 40.14 266.92 40.14C266.04 40.14 265.087 40.4333 264.06 41.02C263.033 41.5333 262.043 42.34 261.09 43.44C260.21 44.4667 259.477 45.75 258.89 47.29C258.377 48.83 258.12 50.59 258.12 52.57V87H253.06ZM315.65 106.14C313.303 106.14 311.177 105.773 309.27 105.04C307.437 104.307 305.787 103.243 304.32 101.85L307.18 98.11L307.84 97.34L308.39 97.78C308.39 98.2933 308.573 98.7333 308.94 99.1C309.307 99.4667 310.003 99.98 311.03 100.64C311.763 101.007 312.57 101.263 313.45 101.41C314.33 101.557 315.21 101.63 316.09 101.63C318.07 101.63 319.757 101.19 321.15 100.31C322.617 99.43 323.973 97.89 325.22 95.69C326.467 93.49 327.75 90.3733 329.07 86.34L339.19 56.75C340.29 53.3767 341.353 50.1133 342.38 46.96C343.407 43.8067 344.103 40.5433 344.47 37.17H350.08C349.567 40.5433 348.76 43.88 347.66 47.18C346.56 50.48 345.387 53.8533 344.14 57.3L331.6 92.72C329.767 97.7067 327.53 101.19 324.89 103.17C322.25 105.15 319.17 106.14 315.65 106.14ZM307.84 37.17H313.45L331.49 82.82L328.96 89.42L307.84 37.17Z" fill="white"/>
</svg>
