<svg width="113" height="112" viewBox="0 0 113 112" fill="none" xmlns="http://www.w3.org/2000/svg">
<path d="M50.9055 17.0183C51.5391 17.6519 52.1295 18.3117 52.6768 18.9942C44.7203 20.7275 37.1498 24.6877 30.9661 30.8715C24.7447 37.0929 20.774 44.7178 19.0574 52.7273C18.3524 52.1659 17.6714 51.5586 17.0183 50.9055C7.66058 41.5478 7.66058 26.376 17.0183 17.0183C26.376 7.66058 41.5478 7.66058 50.9055 17.0183ZM33.7945 90.2774C25.3049 81.7878 21.4273 70.4333 22.1653 59.3213C32.5119 64.1329 45.1952 62.2726 53.7339 53.7339C62.2961 45.1717 64.1432 32.4421 59.2814 22.0799C70.4362 21.3015 81.8481 25.1761 90.372 33.6999C105.995 49.3234 105.995 74.654 90.372 90.2774C74.7485 105.901 49.4179 105.901 33.7945 90.2774Z" stroke="#EBEBEB" stroke-width="4"/>
</svg>
