<svg width="484" height="120" viewBox="0 0 484 120" fill="none" xmlns="http://www.w3.org/2000/svg">
<path d="M54.5315 19.5115C55.1222 20.1028 55.6765 20.716 56.1946 21.3486C47.98 23.1906 40.1711 27.312 33.7807 33.7087C27.3516 40.1441 23.2237 48.016 21.4004 56.2921C20.7473 55.7596 20.1146 55.1884 19.5053 54.5786C9.83157 44.8953 9.83157 29.1948 19.5053 19.5115C29.1778 9.8295 44.8591 9.8295 54.5315 19.5115ZM24.8946 63.7166C35.6837 68.6276 48.839 66.6438 57.7151 57.759C66.6164 48.8489 68.5831 35.6324 63.6233 24.8172C75.1072 24.0824 86.8312 28.1075 95.6042 36.8891C111.799 53.0995 111.799 79.3827 95.6042 95.5931C79.4109 111.802 53.1575 111.802 36.9642 95.5931C28.2265 86.8468 24.2017 75.1693 24.8946 63.7166Z" stroke="#AAFF00" stroke-width="4.5"/>
<path d="M131.37 105.37V37.17H136.65V47.84C137.53 45.42 138.74 43.33 140.28 41.57C141.893 39.81 143.8 38.4533 146 37.5C148.273 36.5467 150.803 36.07 153.59 36.07C156.23 36.07 158.76 36.5833 161.18 37.61C163.673 38.6367 165.873 40.2133 167.78 42.34C169.687 44.3933 171.19 47.0333 172.29 50.26C173.39 53.4133 173.94 57.1533 173.94 61.48C173.94 66.0267 173.353 70.0233 172.18 73.47C171.08 76.8433 169.54 79.63 167.56 81.83C165.653 83.9567 163.453 85.57 160.96 86.67C158.54 87.77 156.01 88.32 153.37 88.32C151.023 88.32 148.75 87.88 146.55 87C144.423 86.1933 142.517 84.9833 140.83 83.37C139.143 81.7567 137.787 79.85 136.76 77.65V105.37H131.37ZM152.38 83.59C154.433 83.59 156.413 83.2233 158.32 82.49C160.227 81.6833 161.95 80.4367 163.49 78.75C165.03 76.99 166.24 74.7167 167.12 71.93C168 69.1433 168.44 65.77 168.44 61.81C168.44 57.19 167.78 53.34 166.46 50.26C165.213 47.18 163.453 44.8333 161.18 43.22C158.907 41.6067 156.267 40.7633 153.26 40.69C150.913 40.6167 148.713 41.02 146.66 41.9C144.68 42.7067 142.92 44.0267 141.38 45.86C139.913 47.6933 138.74 50.0767 137.86 53.01C137.053 55.9433 136.65 59.4633 136.65 63.57C136.723 66.5033 137.053 69.1067 137.64 71.38C138.3 73.58 139.143 75.4867 140.17 77.1C141.27 78.64 142.48 79.8867 143.8 80.84C145.193 81.7933 146.623 82.49 148.09 82.93C149.557 83.37 150.987 83.59 152.38 83.59ZM206.39 87.77C203.163 87.77 200.56 87.22 198.58 86.12C196.673 85.02 195.243 83.3333 194.29 81.06C193.337 78.7133 192.75 75.78 192.53 72.26C192.31 68.74 192.273 64.56 192.42 59.72L193.74 23.53L199.24 22.87L200.23 22.76L200.34 23.53C199.973 23.8967 199.68 24.3367 199.46 24.85C199.313 25.3633 199.203 26.2433 199.13 27.49L198.36 39.26L198.47 41.02L197.7 60.16C197.48 66.0267 197.59 70.6467 198.03 74.02C198.47 77.32 199.387 79.6667 200.78 81.06C202.247 82.38 204.373 83.0767 207.16 83.15C209.58 83.15 211.853 82.71 213.98 81.83C216.18 80.8767 218.307 79.6667 220.36 78.2L222.34 82.38C219.847 84.2133 217.28 85.57 214.64 86.45C212 87.33 209.25 87.77 206.39 87.77ZM181.2 37.28H217.39V41.79H181.2V37.28ZM250.5 87.88C245.953 87.88 242.03 86.78 238.73 84.58C235.43 82.38 232.863 79.3367 231.03 75.45C229.27 71.5633 228.39 67.09 228.39 62.03C228.39 56.8967 229.27 52.3867 231.03 48.5C232.863 44.6133 235.43 41.57 238.73 39.37C242.03 37.17 245.953 36.07 250.5 36.07C255.047 36.07 258.97 37.17 262.27 39.37C265.57 41.57 268.1 44.6133 269.86 48.5C271.693 52.3867 272.61 56.8967 272.61 62.03C272.61 67.09 271.693 71.5633 269.86 75.45C268.1 79.3367 265.57 82.38 262.27 84.58C258.97 86.78 255.047 87.88 250.5 87.88ZM250.5 83.26C254.02 83.26 256.99 82.3433 259.41 80.51C261.903 78.6767 263.81 76.1467 265.13 72.92C266.45 69.6933 267.11 66.0267 267.11 61.92C267.11 57.5933 266.377 53.8533 264.91 50.7C263.517 47.4733 261.573 44.98 259.08 43.22C256.66 41.46 253.8 40.58 250.5 40.58C247.127 40.58 244.193 41.4967 241.7 43.33C239.207 45.1633 237.3 47.6933 235.98 50.92C234.66 54.0733 234 57.74 234 61.92C234 66.1 234.66 69.8033 235.98 73.03C237.3 76.2567 239.207 78.7867 241.7 80.62C244.193 82.38 247.127 83.26 250.5 83.26ZM278.44 87V82.49H294.06V18.25H279.1V13.85H299.45V82.49H314.96V87H278.44ZM344.88 88.1C341.36 88.1 338.17 87.5133 335.31 86.34C332.45 85.1667 329.993 83.48 327.94 81.28C325.887 79.0067 324.273 76.2933 323.1 73.14C322 69.9133 321.45 66.2833 321.45 62.25C321.45 57.9967 322 54.2567 323.1 51.03C324.273 47.73 325.85 44.98 327.83 42.78C329.883 40.5067 332.23 38.82 334.87 37.72C337.51 36.5467 340.37 35.96 343.45 35.96C346.31 35.96 348.95 36.4367 351.37 37.39C353.863 38.3433 356.027 39.7733 357.86 41.68C359.693 43.5867 361.123 46.0067 362.15 48.94C363.177 51.8733 363.69 55.32 363.69 59.28C363.69 59.8667 363.69 60.38 363.69 60.82C363.69 61.1867 363.653 61.6633 363.58 62.25H326.62C326.693 65.8433 327.207 68.9967 328.16 71.71C329.113 74.35 330.397 76.55 332.01 78.31C333.623 80.07 335.53 81.39 337.73 82.27C339.93 83.15 342.35 83.59 344.99 83.59C347.117 83.59 349.023 83.3333 350.71 82.82C352.397 82.3067 353.937 81.5733 355.33 80.62C356.723 79.5933 358.007 78.42 359.18 77.1L362.48 80.07C361.087 81.7567 359.473 83.2233 357.64 84.47C355.88 85.6433 353.937 86.5233 351.81 87.11C349.683 87.77 347.373 88.1 344.88 88.1ZM326.84 57.85H358.3C358.3 55.0633 357.933 52.57 357.2 50.37C356.467 48.17 355.44 46.3367 354.12 44.87C352.8 43.33 351.223 42.1933 349.39 41.46C347.557 40.6533 345.54 40.25 343.34 40.25C340.993 40.25 338.867 40.6533 336.96 41.46C335.053 42.2667 333.367 43.44 331.9 44.98C330.507 46.52 329.37 48.39 328.49 50.59C327.683 52.7167 327.133 55.1367 326.84 57.85ZM376.56 87V37.17H381.62V42.78C382.427 41.46 383.38 40.2867 384.48 39.26C385.58 38.2333 386.753 37.4267 388 36.84C389.32 36.2533 390.713 35.96 392.18 35.96C393.573 35.96 394.893 36.29 396.14 36.95C397.387 37.5367 398.45 38.4533 399.33 39.7C400.283 40.8733 400.907 42.4133 401.2 44.32C402.007 42.6333 402.96 41.1667 404.06 39.92C405.233 38.6733 406.553 37.72 408.02 37.06C409.487 36.3267 411.063 35.96 412.75 35.96C414.29 35.96 415.647 36.2533 416.82 36.84C417.993 37.4267 418.983 38.3067 419.79 39.48C420.597 40.58 421.22 41.9367 421.66 43.55C422.1 45.09 422.283 46.8133 422.21 48.72V87H417.26V50.81C417.26 47.8767 416.967 45.64 416.38 44.1C415.867 42.56 415.17 41.4967 414.29 40.91C413.41 40.3233 412.457 40.03 411.43 40.03C409.817 40.03 408.277 40.69 406.81 42.01C405.343 43.33 404.17 44.98 403.29 46.96C402.41 48.8667 401.97 50.7733 401.97 52.68V87H396.91V51.58C396.91 47.0333 396.397 43.99 395.37 42.45C394.343 40.91 392.693 40.14 390.42 40.14C389.54 40.14 388.587 40.4333 387.56 41.02C386.533 41.5333 385.543 42.34 384.59 43.44C383.71 44.4667 382.977 45.75 382.39 47.29C381.877 48.83 381.62 50.59 381.62 52.57V87H376.56ZM439.15 106.14C436.803 106.14 434.677 105.773 432.77 105.04C430.937 104.307 429.287 103.243 427.82 101.85L430.68 98.11L431.34 97.34L431.89 97.78C431.89 98.2933 432.073 98.7333 432.44 99.1C432.807 99.4667 433.503 99.98 434.53 100.64C435.263 101.007 436.07 101.263 436.95 101.41C437.83 101.557 438.71 101.63 439.59 101.63C441.57 101.63 443.257 101.19 444.65 100.31C446.117 99.43 447.473 97.89 448.72 95.69C449.967 93.49 451.25 90.3733 452.57 86.34L462.69 56.75C463.79 53.3767 464.853 50.1133 465.88 46.96C466.907 43.8067 467.603 40.5433 467.97 37.17H473.58C473.067 40.5433 472.26 43.88 471.16 47.18C470.06 50.48 468.887 53.8533 467.64 57.3L455.1 92.72C453.267 97.7067 451.03 101.19 448.39 103.17C445.75 105.15 442.67 106.14 439.15 106.14ZM431.34 37.17H436.95L454.99 82.82L452.46 89.42L431.34 37.17Z" fill="#AAFF00"/>
</svg>
