<svg width="485" height="120" viewBox="0 0 485 120" fill="none" xmlns="http://www.w3.org/2000/svg">
<path d="M55.0315 19.5115C55.6222 20.1028 56.1765 20.716 56.6946 21.3486C48.48 23.1906 40.6711 27.312 34.2807 33.7087C27.8516 40.1441 23.7237 48.016 21.9004 56.2921C21.2473 55.7596 20.6146 55.1884 20.0053 54.5786C10.3316 44.8953 10.3316 29.1948 20.0053 19.5115C29.6778 9.8295 45.3591 9.8295 55.0315 19.5115ZM25.3946 63.7166C36.1837 68.6276 49.339 66.6438 58.2151 57.759C67.1164 48.8489 69.0831 35.6324 64.1233 24.8172C75.6072 24.0824 87.3312 28.1075 96.1042 36.8891C112.299 53.0995 112.299 79.3827 96.1042 95.5931C79.9109 111.802 53.6575 111.802 37.4642 95.5931C28.7265 86.8468 24.7017 75.1693 25.3946 63.7166Z" stroke="white" stroke-width="4.5"/>
<path d="M131.87 105.37V37.17H137.15V47.84C138.03 45.42 139.24 43.33 140.78 41.57C142.393 39.81 144.3 38.4533 146.5 37.5C148.773 36.5467 151.303 36.07 154.09 36.07C156.73 36.07 159.26 36.5833 161.68 37.61C164.173 38.6367 166.373 40.2133 168.28 42.34C170.187 44.3933 171.69 47.0333 172.79 50.26C173.89 53.4133 174.44 57.1533 174.44 61.48C174.44 66.0267 173.853 70.0233 172.68 73.47C171.58 76.8433 170.04 79.63 168.06 81.83C166.153 83.9567 163.953 85.57 161.46 86.67C159.04 87.77 156.51 88.32 153.87 88.32C151.523 88.32 149.25 87.88 147.05 87C144.923 86.1933 143.017 84.9833 141.33 83.37C139.643 81.7567 138.287 79.85 137.26 77.65V105.37H131.87ZM152.88 83.59C154.933 83.59 156.913 83.2233 158.82 82.49C160.727 81.6833 162.45 80.4367 163.99 78.75C165.53 76.99 166.74 74.7167 167.62 71.93C168.5 69.1433 168.94 65.77 168.94 61.81C168.94 57.19 168.28 53.34 166.96 50.26C165.713 47.18 163.953 44.8333 161.68 43.22C159.407 41.6067 156.767 40.7633 153.76 40.69C151.413 40.6167 149.213 41.02 147.16 41.9C145.18 42.7067 143.42 44.0267 141.88 45.86C140.413 47.6933 139.24 50.0767 138.36 53.01C137.553 55.9433 137.15 59.4633 137.15 63.57C137.223 66.5033 137.553 69.1067 138.14 71.38C138.8 73.58 139.643 75.4867 140.67 77.1C141.77 78.64 142.98 79.8867 144.3 80.84C145.693 81.7933 147.123 82.49 148.59 82.93C150.057 83.37 151.487 83.59 152.88 83.59ZM206.89 87.77C203.663 87.77 201.06 87.22 199.08 86.12C197.173 85.02 195.743 83.3333 194.79 81.06C193.837 78.7133 193.25 75.78 193.03 72.26C192.81 68.74 192.773 64.56 192.92 59.72L194.24 23.53L199.74 22.87L200.73 22.76L200.84 23.53C200.473 23.8967 200.18 24.3367 199.96 24.85C199.813 25.3633 199.703 26.2433 199.63 27.49L198.86 39.26L198.97 41.02L198.2 60.16C197.98 66.0267 198.09 70.6467 198.53 74.02C198.97 77.32 199.887 79.6667 201.28 81.06C202.747 82.38 204.873 83.0767 207.66 83.15C210.08 83.15 212.353 82.71 214.48 81.83C216.68 80.8767 218.807 79.6667 220.86 78.2L222.84 82.38C220.347 84.2133 217.78 85.57 215.14 86.45C212.5 87.33 209.75 87.77 206.89 87.77ZM181.7 37.28H217.89V41.79H181.7V37.28ZM251 87.88C246.453 87.88 242.53 86.78 239.23 84.58C235.93 82.38 233.363 79.3367 231.53 75.45C229.77 71.5633 228.89 67.09 228.89 62.03C228.89 56.8967 229.77 52.3867 231.53 48.5C233.363 44.6133 235.93 41.57 239.23 39.37C242.53 37.17 246.453 36.07 251 36.07C255.547 36.07 259.47 37.17 262.77 39.37C266.07 41.57 268.6 44.6133 270.36 48.5C272.193 52.3867 273.11 56.8967 273.11 62.03C273.11 67.09 272.193 71.5633 270.36 75.45C268.6 79.3367 266.07 82.38 262.77 84.58C259.47 86.78 255.547 87.88 251 87.88ZM251 83.26C254.52 83.26 257.49 82.3433 259.91 80.51C262.403 78.6767 264.31 76.1467 265.63 72.92C266.95 69.6933 267.61 66.0267 267.61 61.92C267.61 57.5933 266.877 53.8533 265.41 50.7C264.017 47.4733 262.073 44.98 259.58 43.22C257.16 41.46 254.3 40.58 251 40.58C247.627 40.58 244.693 41.4967 242.2 43.33C239.707 45.1633 237.8 47.6933 236.48 50.92C235.16 54.0733 234.5 57.74 234.5 61.92C234.5 66.1 235.16 69.8033 236.48 73.03C237.8 76.2567 239.707 78.7867 242.2 80.62C244.693 82.38 247.627 83.26 251 83.26ZM278.94 87V82.49H294.56V18.25H279.6V13.85H299.95V82.49H315.46V87H278.94ZM345.38 88.1C341.86 88.1 338.67 87.5133 335.81 86.34C332.95 85.1667 330.493 83.48 328.44 81.28C326.387 79.0067 324.773 76.2933 323.6 73.14C322.5 69.9133 321.95 66.2833 321.95 62.25C321.95 57.9967 322.5 54.2567 323.6 51.03C324.773 47.73 326.35 44.98 328.33 42.78C330.383 40.5067 332.73 38.82 335.37 37.72C338.01 36.5467 340.87 35.96 343.95 35.96C346.81 35.96 349.45 36.4367 351.87 37.39C354.363 38.3433 356.527 39.7733 358.36 41.68C360.193 43.5867 361.623 46.0067 362.65 48.94C363.677 51.8733 364.19 55.32 364.19 59.28C364.19 59.8667 364.19 60.38 364.19 60.82C364.19 61.1867 364.153 61.6633 364.08 62.25H327.12C327.193 65.8433 327.707 68.9967 328.66 71.71C329.613 74.35 330.897 76.55 332.51 78.31C334.123 80.07 336.03 81.39 338.23 82.27C340.43 83.15 342.85 83.59 345.49 83.59C347.617 83.59 349.523 83.3333 351.21 82.82C352.897 82.3067 354.437 81.5733 355.83 80.62C357.223 79.5933 358.507 78.42 359.68 77.1L362.98 80.07C361.587 81.7567 359.973 83.2233 358.14 84.47C356.38 85.6433 354.437 86.5233 352.31 87.11C350.183 87.77 347.873 88.1 345.38 88.1ZM327.34 57.85H358.8C358.8 55.0633 358.433 52.57 357.7 50.37C356.967 48.17 355.94 46.3367 354.62 44.87C353.3 43.33 351.723 42.1933 349.89 41.46C348.057 40.6533 346.04 40.25 343.84 40.25C341.493 40.25 339.367 40.6533 337.46 41.46C335.553 42.2667 333.867 43.44 332.4 44.98C331.007 46.52 329.87 48.39 328.99 50.59C328.183 52.7167 327.633 55.1367 327.34 57.85ZM377.06 87V37.17H382.12V42.78C382.927 41.46 383.88 40.2867 384.98 39.26C386.08 38.2333 387.253 37.4267 388.5 36.84C389.82 36.2533 391.213 35.96 392.68 35.96C394.073 35.96 395.393 36.29 396.64 36.95C397.887 37.5367 398.95 38.4533 399.83 39.7C400.783 40.8733 401.407 42.4133 401.7 44.32C402.507 42.6333 403.46 41.1667 404.56 39.92C405.733 38.6733 407.053 37.72 408.52 37.06C409.987 36.3267 411.563 35.96 413.25 35.96C414.79 35.96 416.147 36.2533 417.32 36.84C418.493 37.4267 419.483 38.3067 420.29 39.48C421.097 40.58 421.72 41.9367 422.16 43.55C422.6 45.09 422.783 46.8133 422.71 48.72V87H417.76V50.81C417.76 47.8767 417.467 45.64 416.88 44.1C416.367 42.56 415.67 41.4967 414.79 40.91C413.91 40.3233 412.957 40.03 411.93 40.03C410.317 40.03 408.777 40.69 407.31 42.01C405.843 43.33 404.67 44.98 403.79 46.96C402.91 48.8667 402.47 50.7733 402.47 52.68V87H397.41V51.58C397.41 47.0333 396.897 43.99 395.87 42.45C394.843 40.91 393.193 40.14 390.92 40.14C390.04 40.14 389.087 40.4333 388.06 41.02C387.033 41.5333 386.043 42.34 385.09 43.44C384.21 44.4667 383.477 45.75 382.89 47.29C382.377 48.83 382.12 50.59 382.12 52.57V87H377.06ZM439.65 106.14C437.303 106.14 435.177 105.773 433.27 105.04C431.437 104.307 429.787 103.243 428.32 101.85L431.18 98.11L431.84 97.34L432.39 97.78C432.39 98.2933 432.573 98.7333 432.94 99.1C433.307 99.4667 434.003 99.98 435.03 100.64C435.763 101.007 436.57 101.263 437.45 101.41C438.33 101.557 439.21 101.63 440.09 101.63C442.07 101.63 443.757 101.19 445.15 100.31C446.617 99.43 447.973 97.89 449.22 95.69C450.467 93.49 451.75 90.3733 453.07 86.34L463.19 56.75C464.29 53.3767 465.353 50.1133 466.38 46.96C467.407 43.8067 468.103 40.5433 468.47 37.17H474.08C473.567 40.5433 472.76 43.88 471.66 47.18C470.56 50.48 469.387 53.8533 468.14 57.3L455.6 92.72C453.767 97.7067 451.53 101.19 448.89 103.17C446.25 105.15 443.17 106.14 439.65 106.14ZM431.84 37.17H437.45L455.49 82.82L452.96 89.42L431.84 37.17Z" fill="white"/>
</svg>
